<svg width="31" height="31" viewBox="0 0 31 31" fill="none" xmlns="http://www.w3.org/2000/svg">
<path d="M1.01334 31V24.3624L6.76764 14.4424C7.32256 13.5184 7.6724 12.7647 7.81717 12.1812C7.98606 11.549 8.0705 10.9898 8.0705 10.5035C8.0705 9.92 7.94987 9.43373 7.70859 9.04471C7.49145 8.65569 7.12955 8.46118 6.62288 8.46118C6.06796 8.46118 5.58541 8.70431 5.17525 9.19059C4.76509 9.67686 4.43938 10.3576 4.19811 11.2329L0 7.22117C0.530795 5.1302 1.38731 3.40392 2.56953 2.04235C3.75176 0.680785 5.27176 0 7.12955 0C9.13209 0 10.7365 0.875294 11.9429 2.62588C13.1734 4.32784 13.7886 6.66196 13.7886 9.62824C13.7886 11.0871 13.5956 12.5459 13.2096 14.0047C12.8477 15.4149 12.0756 17.1655 10.8934 19.2565L6.76764 26.4047L5.86288 22.6847H14.2591V31H1.01334Z" fill="#1BE046"/>
<path d="M15.7638 26.04V19.1835L22.0971 0.729411H28.1409L21.7714 19.1835L19.2742 17.7247H31V26.04H15.7638ZM23.6895 31V26.04L24.3409 17.7247V13.7129H29.1905V31H23.6895Z" fill="#1BE046"/>
</svg>
